<svg xmlns="http://www.w3.org/2000/svg" xmlns:xlink="http://www.w3.org/1999/xlink" viewBox="0 0 153 188.6"><defs><style>.cls-1{fill:url(#Dégradé_sans_nom_53);}.cls-2{fill:#eaeaea;}.cls-3{fill:#fefefe;}</style><linearGradient id="Dégradé_sans_nom_53" x1="117.97" y1="164.31" x2="32.12" y2="15.62" gradientUnits="userSpaceOnUse"><stop offset="0" stop-color="#6f42c1"/><stop offset="0.06" stop-color="#743fbf"/><stop offset="0.28" stop-color="#763ebe"/><stop offset="0.75" stop-color="#cb0c9f"/><stop offset="0.89" stop-color="#cc0e9e"/><stop offset="0.94" stop-color="#cd1599"/><stop offset="0.97" stop-color="#d12091"/><stop offset="1" stop-color="#d53185"/><stop offset="1" stop-color="#d63384"/></linearGradient></defs><g id="Calque_2" data-name="Calque 2"><g id="Calque_1-2" data-name="Calque 1"><path class="cls-1" d="M153,92.49C153,51,118.75,17.32,76.5,17.32a77.26,77.26,0,0,0-35.93,8.8c1.57-.87,3-1.62,4.33-2.26A89.44,89.44,0,0,1,49.56,0a147.35,147.35,0,0,0-20,20.59c-15.5,19.5-22.43,38.53-24,43.52A73.77,73.77,0,0,0,0,92.49C0,134,34.25,167.66,76.5,167.66a77.76,77.76,0,0,0,11.8-.89l-.23,0a90.29,90.29,0,0,1-4.28,10.36,91.29,91.29,0,0,1-6.65,11.42A149.13,149.13,0,0,0,101.94,174a150.74,150.74,0,0,0,33-32.92A74.09,74.09,0,0,0,153,92.49Z"/><path class="cls-2" d="M118.69,68c-.29.25-.63.12-1,.12H77.27c-.36,0-.72,0-1.08,0a2.09,2.09,0,0,1-1.43.24H53c-1.54,0-1.52,0-1.38,1.5.36,3.92.69,7.84,1.08,11.76a13.53,13.53,0,0,0,.53,3.84,1.32,1.32,0,0,0,1,.19c7.23,0,14.45,0,21.68,0a.47.47,0,0,1,.3.1.49.49,0,0,0,0,.12A1.53,1.53,0,0,1,76.46,87q0,7.59,0,15.18a2,2,0,0,1-.15,1l-.11.12c-.36,0-.71,0-1.07,0q-18.75,0-37.51,0c-.81,0-1-.26-1.08-1-.44-5.14-.91-10.28-1.38-15.42C34.58,80.57,34,74.27,33.4,68Q32.7,60.29,32,52.63C32,52,31.59,51.29,32,50.9s1.2-.14,1.83-.14H75.12c.35,0,.71,0,1.07,0l1.08,0h42.15c.31,0,.66-.16.92.15a2.29,2.29,0,0,1-1.6.26H80.32c-1,0-1.94,0-2.9,0-.65,0-1,.2-1,.89q0,7.41,0,14.84c0,.62.25.9.88.87.3,0,.61,0,.91,0h38.84C117.63,67.77,118.21,67.63,118.69,68Z"/><path class="cls-2" d="M76.37,149l-.34.17L61.76,145.2q-10.56-2.89-21.14-5.78a.9.9,0,0,1-.79-.93q-.87-9.83-1.78-19.64c-.18-2-.34-4-.55-6-.07-.68,0-.93.84-.92,5.34,0,10.68,0,16,0,.69,0,.87.21.92.86.34,4.15.73,8.28,1.1,12.42,0,.42.12.66.62.79,6.29,1.63,12.58,3.3,18.88,5,.1,0,.21,0,.32,0l.11.12a2.38,2.38,0,0,1,.15,1.12c0,5.32,0,10.64,0,15.95A2.44,2.44,0,0,1,76.37,149Z"/><path class="cls-3" d="M76.19,131c6.21-1.64,12.41-3.3,18.63-4.89.87-.23,1.08-.61,1.15-1.43.44-5.19.94-10.38,1.41-15.57.17-1.81.32-3.62.5-5.44,0-.32,0-.45-.38-.43s-.39,0-.58,0H77.1c-.31,0-.61,0-.91,0q0-8.64,0-17.28l.91,0q19.52,0,39,0c.76,0,1.06,0,1,1-.79,8.19-1.5,16.39-2.25,24.59q-1.16,12.75-2.32,25.49c0,.27-.08.54-.1.81-.14,1.45-.14,1.45-1.57,1.84l-33.92,9.23c-.18,0-.38.07-.57.11-.3-.26-.17-.61-.17-.92Q76.19,139.54,76.19,131Z"/><path class="cls-3" d="M118.69,68H77.27c-1.08,0-1.08,0-1.08-1,0-5,0-10.06,0-15.09,0-.78.2-1,1-1q21.58,0,43.16,0c-.17,2.05-.33,4.1-.51,6.15q-.48,5.19-1,10.36C118.83,67.63,118.87,67.85,118.69,68Z"/></g></g></svg>